<?xml version="1.0" standalone="no"?>
<!DOCTYPE svg PUBLIC "-//W3C//DTD SVG 20010904//EN"
 "http://www.w3.org/TR/2001/REC-SVG-20010904/DTD/svg10.dtd">
<svg version="1.0" xmlns="http://www.w3.org/2000/svg"
 width="700.000000pt" height="700.000000pt" viewBox="0 0 700.000000 700.000000"
 preserveAspectRatio="xMidYMid meet">
<metadata>
Created by potrace 1.14, written by Peter Selinger 2001-2017
</metadata>
<g transform="translate(0.000000,700.000000) scale(0.100000,-0.100000)"
fill="#000000" stroke="none">
<path d="M1417 6104 c-1 -1 -31 -4 -67 -8 -80 -6 -100 -10 -186 -37 -351 -108
-612 -407 -678 -774 -11 -66 -14 -232 -12 -930 l1 -850 27 -51 c55 -104 185
-167 297 -143 20 4 45 10 56 14 20 6 20 2 21 -707 0 -392 4 -740 8 -773 10
-81 58 -223 103 -304 20 -36 40 -68 43 -71 3 -3 14 -16 23 -30 34 -50 141
-150 207 -194 87 -58 208 -110 307 -132 63 -14 143 -17 418 -19 l341 -2 64
-52 c60 -48 130 -96 236 -163 52 -33 179 -96 266 -133 50 -21 77 -40 108 -76
256 -303 736 -305 996 -4 26 30 52 55 56 55 12 0 85 33 181 82 103 51 220 129
332 219 l89 73 356 1 c324 1 362 3 440 23 304 74 546 301 635 592 37 124 40
196 40 918 0 386 1 702 2 702 1 0 14 -5 30 -11 53 -21 148 -14 206 15 28 14
62 35 74 45 28 23 68 96 78 140 9 41 9 1638 0 1712 -52 428 -375 776 -795 856
-80 15 -204 18 -640 18 -467 -1 -487 -2 -531 -22 -62 -28 -113 -75 -139 -128
-11 -24 -26 -45 -33 -47 -10 -3 -1730 -2 -1763 1 -5 1 -18 19 -27 40 -24 53
-85 111 -144 134 -45 19 -75 20 -536 21 -269 1 -489 1 -490 0z"/>
</g>
</svg>
