<svg width="640" height="640" viewBox="0 0 640 640" fill="none" xmlns="http://www.w3.org/2000/svg">
<path d="M79.8799 159.12C79.8799 137.903 88.3084 117.554 103.311 102.551C118.314 87.5485 138.663 79.12 159.88 79.12H479.88C501.097 79.12 521.445 87.5485 536.448 102.551C551.451 117.554 559.88 137.903 559.88 159.12V439.12C559.88 460.337 551.451 480.686 536.448 495.689C521.445 510.691 501.097 519.12 479.88 519.12H159.88C138.663 519.12 118.314 510.691 103.311 495.689C88.3084 480.686 79.8799 460.337 79.8799 439.12V159.12Z" fill="#FDBA74"/>
<path d="M481.14 416C481.14 326.5 394.88 298.5 321.14 298.5C238.64 298.5 159.88 329.72 159.88 416C159.88 495 246.14 562.86 321.14 562.86C411.14 562.86 481.14 469.74 481.14 416Z" fill="#FED7AA"/>
<path d="M234.4 100.46L88.4 306.36C74.3 326.24 43 316.26 43 291.9V151C43 127.131 52.4821 104.239 69.3604 87.3604C86.2387 70.4821 109.131 61 133 61H214C218.587 60.9989 223.085 62.2595 227.003 64.6439C230.921 67.0284 234.108 70.4447 236.214 74.519C238.32 78.5933 239.265 83.1685 238.945 87.7439C238.625 92.3193 237.053 96.7185 234.4 100.46ZM404.74 100.46L550.74 306.36C564.82 326.24 596.14 316.26 596.14 291.9V151C596.14 127.131 586.658 104.239 569.78 87.3604C552.901 70.4821 530.009 61 506.14 61H425.14C420.553 60.9989 416.055 62.2595 412.137 64.6439C408.219 67.0284 405.032 70.4447 402.926 74.519C400.82 78.5933 399.875 83.1685 400.195 87.7439C400.515 92.3193 402.087 96.7185 404.74 100.46Z" fill="#7C2D12"/>
<path d="M239.88 239.12C239.88 233.816 241.987 228.729 245.738 224.978C249.488 221.227 254.576 219.12 259.88 219.12C265.184 219.12 270.271 221.227 274.022 224.978C277.773 228.729 279.88 233.816 279.88 239.12V259.12C279.88 264.424 277.773 269.511 274.022 273.262C270.271 277.013 265.184 279.12 259.88 279.12C254.576 279.12 249.488 277.013 245.738 273.262C241.987 269.511 239.88 264.424 239.88 259.12V239.12ZM359.88 239.12C359.88 233.816 361.987 228.729 365.738 224.978C369.488 221.227 374.576 219.12 379.88 219.12C385.184 219.12 390.271 221.227 394.022 224.978C397.773 228.729 399.88 233.816 399.88 239.12V259.12C399.88 264.424 397.773 269.511 394.022 273.262C390.271 277.013 385.184 279.12 379.88 279.12C374.576 279.12 369.488 277.013 365.738 273.262C361.987 269.511 359.88 264.424 359.88 259.12V239.12Z" fill="#431407"/>
<path d="M342.78 319.12H296.44C284.76 319.12 273.9 335.44 283.68 348.58C290.32 357.5 307 375.34 320.5 375.34C334 375.34 349.84 357.5 356.06 348.58C366.84 331.7 352.36 319.36 342.78 319.12ZM329.88 389.44C329.88 386.788 328.826 384.244 326.951 382.369C325.076 380.494 322.532 379.44 319.88 379.44H319.66C317.008 379.44 314.464 380.494 312.589 382.369C310.714 384.244 309.66 386.788 309.66 389.44C309.66 391.08 309.68 392.72 309.76 394.32C307.44 438.72 273.64 458.8 250.5 458.8C247.848 458.8 245.304 459.854 243.429 461.729C241.554 463.604 240.5 466.148 240.5 468.8C240.5 471.452 241.554 473.996 243.429 475.871C245.304 477.747 247.848 478.8 250.5 478.8C274.72 478.8 304.5 463.88 319.76 433.96C335.04 463.88 364.82 478.8 389.02 478.8C391.672 478.8 394.216 477.747 396.091 475.871C397.966 473.996 399.02 471.452 399.02 468.8C399.02 466.148 397.966 463.604 396.091 461.729C394.216 459.854 391.672 458.8 389.02 458.8C365.9 458.8 332.1 438.72 329.78 394.32C329.844 392.694 329.877 391.067 329.88 389.44Z" fill="#431407"/>
</svg>
